<svg xmlns="http://www.w3.org/2000/svg" xml:space="preserve" width="192.871" height="183.331" style="shape-rendering:geometricPrecision;text-rendering:geometricPrecision;image-rendering:optimizeQuality;fill-rule:evenodd;clip-rule:evenodd" viewBox="0 0 1105.93 1051.22">
    <defs>
        <style>
            .str0{stroke:#3e4095;stroke-width:4.33;stroke-miterlimit:2.61313}.fil0{fill:#3e4095}
        </style>
    </defs>
    <g id="Layer_x0020_1">
        <g id="_1745545424">
            <path class="fil0 str0" d="M1057.84 45.73c-23.6 24.7-46.73 49.18-69.38 73.47l4.44.96c20.92-24.77 42.58-49.58 64.94-74.43zm-120 128.22a7606.73 7606.73 0 0 0-72.22 79.99l18.31 4c20.06-27.28 41.09-54.61 63.04-82l-9.13-2zM816.99 309.13a7264.507 7264.507 0 0 0-69.48 80.84l41.17 8.99c17.16-27.95 35.41-55.98 54.72-84.07l-26.41-5.76zM700.91 445.6c-24 28.96-47.37 57.65-70.16 86.09l76.59 16.71c14.32-30.29 30.04-60.66 47.09-91.11l-53.52-11.69h.01zM586.29 587.78a6424.089 6424.089 0 0 0-71.64 93.16l129.86 28.34c10.25-33.51 22.36-67.14 36.27-100.87l-94.48-20.62h-.01zM472.43 737.53a6282.864 6282.864 0 0 0-63.47 87.61l201.01 43.87c4-32.42 9.91-64.95 17.66-97.61l-155.2-33.87zm-103.6 144.64a6621.967 6621.967 0 0 0-79.91 117.62l318.88 48.86c-3.95-38.18-4.98-76.53-3.26-115.03l-235.71-51.45zM1104.13 63.73c-156.5 230.53-153.83 499.8-56.58 792.05-49.36 69.5-135.81 122.52-246.87 164.58-44.12-391.52 45.84-715.98 303.45-956.64zM1029.55 4.58C656.67 310.4 322.99 568.58 3.48 809.49l174.87 146.58C444.39 621.2 715.26 291.19 1029.56 4.58z"/>
        </g>
    </g>
</svg>
